<?xml version="1.0" standalone="no"?><!DOCTYPE svg PUBLIC "-//W3C//DTD SVG 1.1//EN" "http://www.w3.org/Graphics/SVG/1.1/DTD/svg11.dtd"><svg t="1610037148543" class="icon" viewBox="0 0 1069 1024" version="1.1" xmlns="http://www.w3.org/2000/svg" p-id="1510" width="133.625" height="128" xmlns:xlink="http://www.w3.org/1999/xlink"><defs><style type="text/css"></style></defs><path d="M584.461302 753.723546v169.822168H298.31879V753.723546h286.142512zM584.461302 48.790896V178.117718H298.31879V14.752667h286.142512v34.038229z" fill="#D3EEE4" p-id="1511"></path><path d="M796.466891 814.2913l125.867652-34.905328 32.165666 115.997489-125.867653 34.905327zM710.375077 13.922466l32.377827 117.0583-125.82153 34.86843-32.470072-117.0583L710.375077 13.922466zM644.660078 265.777689l125.784632-34.840757L892.834744 672.852772l-125.793856 34.831532z" fill="#C6CA76" p-id="1512"></path><path d="M298.31879 923.545714v5.903649H128.404377V808.978015h169.914413v114.567699zM128.404377 14.752667h169.914413v121.486037H128.404377zM128.404377 239.921549h169.914413v458.547527H128.404377z" fill="#FF8875" p-id="1513"></path><path d="M766.967092 707.656631l125.784632-34.86843 29.509024 106.496302-125.784633 34.86843zM616.903701 165.969114l125.793857-34.840756 27.673357 99.919268-125.793857 34.840756zM298.31879 753.723546v55.254469H128.404377V698.469076h169.914413v55.25447zM298.31879 178.117718V239.921549H128.404377V136.238704h169.914413v41.879014zM584.461302 178.117718v575.605828h-285.958023V178.117718z m-82.097626 429.582747v-276.733571H380.50866v276.733571z" fill="#06C7CA" p-id="1514"></path><path d="M1055.185106 930.279564v79.699268H13.836679v-79.699268h1041.348427z" fill="#FFDB93" p-id="1515"></path><path d="M1055.185106 1024H13.836679a13.836679 13.836679 0 0 1-13.836679-13.836679v-79.699268a13.836679 13.836679 0 0 1 13.836679-13.836679h1041.348427a13.836679 13.836679 0 0 1 13.836679 13.836679v79.699268a13.836679 13.836679 0 0 1-13.836679 13.836679zM27.673357 996.326643h1013.675071v-52.025911H27.673357zM128.404377 253.758227a13.836679 13.836679 0 0 1-13.836679-13.836678V136.238704a13.836679 13.836679 0 1 1 27.673357 0V239.921549a13.836679 13.836679 0 0 1-13.836678 13.836678zM128.404377 822.814694a13.836679 13.836679 0 0 1-13.836679-13.836679v-110.693428a13.836679 13.836679 0 1 1 27.673357 0v110.693428a13.836679 13.836679 0 0 1-13.836678 13.836679z" fill="#18252F" p-id="1516"></path><path d="M298.31879 150.075383H128.404377a13.836679 13.836679 0 0 1-13.836679-13.836679V14.752667a13.836679 13.836679 0 0 1 13.836679-13.836679h169.914413a13.836679 13.836679 0 0 1 0 27.673357H142.241055v93.812681h156.077735a13.836679 13.836679 0 0 1 0 27.673357zM298.31879 943.286042H128.404377a13.836679 13.836679 0 0 1-13.836679-13.836679V808.978015a13.836679 13.836679 0 0 1 13.836679-13.836678h169.914413a13.836679 13.836679 0 0 1 0 27.673357H142.241055v92.797991h144.731658a13.836679 13.836679 0 0 1 25.182755 7.933029v5.903649a13.836679 13.836679 0 0 1-13.836678 13.836679zM298.31879 712.305755H128.404377a13.836679 13.836679 0 0 1-13.836679-13.836679V239.921549a13.836679 13.836679 0 0 1 13.836679-13.836679h169.914413a13.836679 13.836679 0 0 1 0 27.673357H142.241055v430.87417h156.077735a13.836679 13.836679 0 0 1 0 27.673358zM770.426262 244.718264a13.836679 13.836679 0 0 1-13.283212-10.146897l-27.673357-99.90082a13.836679 13.836679 0 1 1 26.658667-7.379561l27.673358 99.900819a13.836679 13.836679 0 0 1-13.375456 17.526459zM644.604731 279.586694a13.836679 13.836679 0 0 1-13.283211-10.146898l-27.673357-99.900819a13.836679 13.836679 0 1 1 26.658667-7.379562l27.673357 99.90082a13.836679 13.836679 0 0 1-13.375456 17.526459zM796.531462 828.072632a13.836679 13.836679 0 0 1-13.283212-10.146898l-29.518247-106.542425a13.836679 13.836679 0 1 1 26.658667-7.379562l29.518248 106.542425a13.836679 13.836679 0 0 1-13.375456 17.52646zM922.445237 793.388691a13.836679 13.836679 0 0 1-13.283212-10.146898l-29.518247-106.542425a13.836679 13.836679 0 1 1 26.658667-7.379561l29.518248 106.542424A13.836679 13.836679 0 0 1 922.445237 793.388691z" fill="#18252F" p-id="1517"></path><path d="M616.931374 179.685875a13.836679 13.836679 0 0 1-13.283211-10.146898L571.17809 52.480677a13.836679 13.836679 0 0 1 9.224453-17.065237L706.685296 0.54701a13.836679 13.836679 0 0 1 17.065237 9.224452L756.405094 127.290986a13.836679 13.836679 0 0 1-9.224452 17.065236l-126.559487 34.86843a13.836679 13.836679 0 0 1-3.689781 0.461223zM601.526539 58.476571l25.09051 90.399633 99.162863-27.673357L701.05838 30.987703zM828.632556 944.116243a13.836679 13.836679 0 0 1-13.375456-10.146898L783.156006 817.925734a13.836679 13.836679 0 0 1 9.224452-17.065237L918.663211 765.715334a13.836679 13.836679 0 0 1 17.065237 9.224452l32.193339 116.043611a13.836679 13.836679 0 0 1-9.224453 17.065237l-125.913774 34.86843a14.021168 14.021168 0 0 1-4.151004 1.199179z m-15.128102-119.917881L838.318231 913.306572l99.255107-27.673357-24.813776-89.384944zM767.013214 721.530207a13.836679 13.836679 0 0 1-13.375456-10.146898L631.32152 269.439796a13.836679 13.836679 0 0 1 9.224452-17.065236l125.821531-34.86843a13.836679 13.836679 0 0 1 17.065236 9.224452l122.777461 442.404735a13.836679 13.836679 0 0 1-9.224452 17.065237l-126.282753 34.86843a13.836679 13.836679 0 0 1-3.689781 0.461223zM661.669968 275.435691l115.028921 415.100356 99.162863-27.673357-115.028921-415.100357z" fill="#18252F" p-id="1518"></path><path d="M584.461302 937.382392h-285.958023a13.836679 13.836679 0 0 1-13.836679-13.836678V14.752667a13.836679 13.836679 0 0 1 13.836679-13.836679h285.958023a13.836679 13.836679 0 0 1 13.836678 13.836679v908.793047a13.836679 13.836679 0 0 1-13.836678 13.836678z m-272.305834-27.673357h258.284666V28.589345h-258.284666z" fill="#18252F" p-id="1519"></path><path d="M584.461302 191.954397h-285.958023a13.836679 13.836679 0 0 1 0-27.673357h285.958023a13.836679 13.836679 0 0 1 0 27.673357zM584.461302 767.560224h-285.958023a13.836679 13.836679 0 0 1 0-27.673357h285.958023a13.836679 13.836679 0 0 1 0 27.673357zM502.363676 621.537143H380.50866a13.836679 13.836679 0 0 1-13.836678-13.836678v-276.733571a13.836679 13.836679 0 0 1 13.836678-13.836679h121.855016a13.836679 13.836679 0 0 1 13.836678 13.836679v276.733571a13.836679 13.836679 0 0 1-13.836678 13.836678z m-108.018337-27.673357H488.895975v-249.060214H394.345339zM199.617149 330.597916h27.673357v277.102549h-27.673357z" fill="#18252F" p-id="1520"></path></svg>